<svg width="26" height="26" viewBox="0 0 26 26" fill="none" xmlns="http://www.w3.org/2000/svg">
<g clip-path="url(#clip0)">
<path d="M9.06252 20.4435C7.52818 20.4435 6.28418 21.6872 6.28418 23.2218C6.28418 24.7561 7.52818 25.9999 9.06252 25.9999C10.5969 25.9999 11.8409 24.7561 11.8409 23.2218C11.8387 21.6881 10.596 20.4456 9.06252 20.4435ZM9.06252 24.9061C8.13213 24.9061 7.378 24.152 7.378 23.2218C7.378 22.2914 8.13213 21.5373 9.06252 21.5373C9.9929 21.5373 10.747 22.2914 10.747 23.2218C10.7466 24.152 9.99269 24.9059 9.06252 24.9061Z" fill="#CB0000"/>
<path d="M20.7605 20.4435C19.2262 20.4435 17.9824 21.6872 17.9824 23.2218C17.9824 24.7561 19.2262 25.9999 20.7605 25.9999C22.2951 25.9999 23.5389 24.7561 23.5389 23.2218C23.5367 21.6881 22.2942 20.4456 20.7605 20.4435ZM20.7605 24.9061C19.8304 24.9061 19.0762 24.152 19.0762 23.2218C19.0762 22.2914 19.8304 21.5373 20.7605 21.5373C21.6909 21.5373 22.4451 22.2914 22.4451 23.2218C22.4446 24.152 21.6907 24.9059 20.7605 24.9061Z" fill="#CB0000"/>
<path d="M24.5343 5.11912H6.01612L5.61128 2.73451C5.34573 1.15403 3.97632 -0.00258989 2.37362 -2.62643e-05H1.44388C1.1418 -2.62643e-05 0.896973 0.2448 0.896973 0.546881C0.896973 0.848963 1.1418 1.09379 1.44388 1.09379H2.37362C3.44159 1.08952 4.35467 1.86138 4.52857 2.91503L6.72154 15.8385C6.98709 17.4188 8.35671 18.5756 9.95919 18.573H22.4398C22.7417 18.573 22.9867 18.328 22.9867 18.0261C22.9867 17.7241 22.7417 17.4792 22.4398 17.4792H9.96475C8.89678 17.4833 7.9837 16.7116 7.81002 15.658L7.62949 14.608H19.8856C21.3193 14.611 22.5876 13.6797 23.0141 12.311L25.0538 5.8301C25.1075 5.6641 25.0769 5.48251 24.9718 5.34322C24.8693 5.20414 24.7073 5.12104 24.5343 5.11912ZM21.9694 11.9773C21.6833 12.8901 20.8367 13.5107 19.8802 13.5086H7.44342L6.20198 6.20738H23.7851L21.9694 11.9773Z" fill="#CB0000"/>
</g>
<defs>
<clipPath id="clip0">
<rect width="26" height="26" fill="white"/>
</clipPath>
</defs>
</svg>