<svg width="25" height="23" viewBox="0 0 25 23" fill="none" xmlns="http://www.w3.org/2000/svg">
<path d="M19.5862 18C18.158 18 17 19.1192 17 20.5001C17 21.8808 18.158 23 19.5862 23C21.0144 23 22.1724 21.8808 22.1724 20.5001C22.1704 19.12 21.0136 18.0019 19.5862 18ZM19.5862 22.0157C18.7202 22.0157 18.0182 21.3371 18.0182 20.5001C18.0182 19.6629 18.7202 18.9843 19.5862 18.9843C20.4523 18.9843 21.1542 19.6629 21.1542 20.5001C21.1538 21.3371 20.4521 22.0155 19.5862 22.0157Z" fill="#CB0000"/>
<path d="M9.09998 18C7.62466 18 6.42871 19.1003 6.42871 20.4578C6.42871 21.8151 7.62466 22.9153 9.09998 22.9153C10.5755 22.9153 11.7715 21.8151 11.7715 20.4578C11.7694 19.101 10.5747 18.0019 9.09998 18ZM9.09998 21.9477C8.20559 21.9477 7.48046 21.2806 7.48046 20.4578C7.48046 19.6347 8.20559 18.9676 9.09998 18.9676C9.99458 18.9676 10.7197 19.6347 10.7197 20.4578C10.7193 21.2806 9.99438 21.9475 9.09998 21.9477Z" fill="#CB0000"/>
<path d="M23.63 4.52848H5.82411L5.43484 2.41902C5.1795 1.0209 3.86277 -0.00226406 2.32171 3.76248e-06H1.42773C1.13727 3.76248e-06 0.901855 0.216581 0.901855 0.483807C0.901855 0.751032 1.13727 0.96761 1.42773 0.96761H2.32171C3.3486 0.96383 4.22656 1.64663 4.39377 2.57871L6.5024 14.011C6.75774 15.4089 8.07468 16.4323 9.61553 16.43H21.6161C21.9064 16.43 22.142 16.2133 22.142 15.9462C22.142 15.679 21.9064 15.4624 21.6161 15.4624H9.62087C8.59398 15.466 7.71602 14.7834 7.54901 13.8513L7.37543 12.9225H19.1601C20.5387 12.9251 21.7583 12.1013 22.1683 10.8905L24.1296 5.15742C24.1812 5.01058 24.1518 4.84994 24.0507 4.72672C23.9521 4.60369 23.7964 4.53018 23.63 4.52848ZM21.1638 10.5953C20.8887 11.4028 20.0746 11.9518 19.155 11.9499H7.19651L6.00282 5.49117H22.9096L21.1638 10.5953Z" fill="#CB0000"/>
</svg>
