<svg width="60" height="60" viewBox="0 0 60 60" fill="none" xmlns="http://www.w3.org/2000/svg">
<g clip-path="url(#clip0)">
<path d="M53.75 10H6.24996C2.805 10 0 12.805 0 16.2501V43.7501C0 47.1951 2.805 50.0001 6.24996 50.0001H53.7499C57.1949 50.0001 59.9999 47.1951 59.9999 43.7501V16.2501C60 12.805 57.195 10 53.75 10ZM57.5 43.75C57.5 45.8175 55.8176 47.5 53.75 47.5H6.24996C4.18242 47.5 2.49996 45.8175 2.49996 43.75V16.2501C2.49996 14.1825 4.18242 12.5001 6.24996 12.5001H53.7499C55.8175 12.5001 57.4999 14.1825 57.4999 16.2501V43.75H57.5Z" fill="#CB0000"/>
<path d="M58.75 17.4999H1.25004C0.560039 17.4999 0 18.0599 0 18.7499V26.2499C0 26.9399 0.560039 27.5 1.25004 27.5H58.7501C59.4401 27.5 60.0001 26.9399 60.0001 26.2499V18.7499C60 18.0599 59.44 17.4999 58.75 17.4999ZM57.5 24.9999H2.49996V19.9998H57.4999V24.9999H57.5Z" fill="#CB0000"/>
<path d="M23.75 35H8.75004C8.06004 35 7.5 35.56 7.5 36.25C7.5 36.94 8.06004 37.5 8.75004 37.5H23.75C24.44 37.5 25.0001 36.9399 25.0001 36.2499C25.0001 35.5599 24.44 35 23.75 35Z" fill="#CB0000"/>
<path d="M23.75 40H8.75004C8.06004 40 7.5 40.56 7.5 41.25C7.5 41.94 8.06004 42.5001 8.75004 42.5001H23.75C24.44 42.5001 25.0001 41.94 25.0001 41.25C25 40.56 24.44 40 23.75 40Z" fill="#CB0000"/>
<path d="M48.75 32.5H46.25C44.1825 32.5 42.5 34.1825 42.5 36.25V38.75C42.5 40.8175 44.1825 42.5 46.25 42.5H48.75C50.8175 42.5 52.5 40.8175 52.5 38.75V36.25C52.5 34.1826 50.8175 32.5 48.75 32.5ZM50 38.7501C50 39.4401 49.44 40.0001 48.75 40.0001H46.25C45.56 40.0001 45 39.4401 45 38.7501V36.2501C45 35.5601 45.56 35.0001 46.25 35.0001H48.75C49.44 35.0001 50 35.5601 50 36.2501V38.7501Z" fill="#CB0000"/>
</g>
<defs>
<clipPath id="clip0">
<rect width="60" height="60" fill="white"/>
</clipPath>
</defs>
</svg>
