<svg width="62" height="62" viewBox="0 0 62 62" fill="none" xmlns="http://www.w3.org/2000/svg">
<path d="M50.6882 40.7715C49.1733 40.7715 47.7341 41.3649 46.6483 42.438C45.5626 43.5237 44.9566 44.9377 44.9566 46.4526C44.9566 47.9676 45.55 49.3816 46.6483 50.4673C47.7467 51.5404 49.1733 52.1338 50.6882 52.1338C53.7939 52.1338 56.3189 49.5836 56.3189 46.4526C56.3189 43.3217 53.7939 40.7715 50.6882 40.7715ZM50.6882 49.6088C48.946 49.6088 47.4816 48.1696 47.4816 46.4526C47.4816 44.7357 48.946 43.2965 50.6882 43.2965C52.4052 43.2965 53.7939 44.7104 53.7939 46.4526C53.7939 48.1949 52.4052 49.6088 50.6882 49.6088ZM52.1527 21.8471C51.9255 21.6324 51.6225 21.5188 51.3069 21.5188H44.8304C44.136 21.5188 43.5679 22.0869 43.5679 22.7813V33.1336C43.5679 33.8279 44.136 34.396 44.8304 34.396H55.1069C55.8013 34.396 56.3694 33.8279 56.3694 33.1336V26.2026C56.3694 25.8491 56.2179 25.5082 55.9528 25.2684L52.1527 21.8471ZM53.8444 31.8711H46.0928V24.0311H50.8145L53.8444 26.7581V31.8711ZM19.8587 40.7715C18.3437 40.7715 16.9045 41.3649 15.8188 42.438C14.733 43.5237 14.1271 44.9377 14.1271 46.4526C14.1271 47.9676 14.7204 49.3816 15.8188 50.4673C16.9171 51.5404 18.3437 52.1338 19.8587 52.1338C22.9644 52.1338 25.4893 49.5836 25.4893 46.4526C25.4893 43.3217 22.9644 40.7715 19.8587 40.7715ZM19.8587 49.6088C18.1165 49.6088 16.652 48.1696 16.652 46.4526C16.652 44.7357 18.1165 43.2965 19.8587 43.2965C21.5756 43.2965 22.9644 44.7104 22.9644 46.4526C22.9644 48.1949 21.5756 49.6088 19.8587 49.6088ZM11.438 42.3244H8.90043V38.9662C8.90043 38.2718 8.33231 37.7037 7.63795 37.7037C6.94359 37.7037 6.37548 38.2718 6.37548 38.9662V43.5868C6.37548 44.2812 6.94359 44.8493 7.63795 44.8493H11.438C12.1324 44.8493 12.7005 44.2812 12.7005 43.5868C12.7005 42.8925 12.1324 42.3244 11.438 42.3244ZM17.8387 35.4439C17.8387 34.7495 17.2706 34.1814 16.5763 34.1814H1.26247C0.568112 34.1814 0 34.7495 0 35.4439C0 36.1382 0.568112 36.7064 1.26247 36.7064H16.5763C17.2706 36.7064 17.8387 36.1509 17.8387 35.4439ZM3.82529 30.8864L19.1391 30.9747C19.8334 30.9747 20.4015 30.4193 20.4142 29.7249C20.4268 29.0179 19.8587 28.4498 19.1643 28.4498L3.85054 28.3614C3.83791 28.3614 3.83791 28.3614 3.83791 28.3614C3.14355 28.3614 2.57544 28.9169 2.57544 29.6113C2.56282 30.3183 3.13093 30.8864 3.82529 30.8864ZM6.40073 25.1547H21.7145C22.4089 25.1547 22.977 24.5866 22.977 23.8923C22.977 23.1979 22.4089 22.6298 21.7145 22.6298H6.40073C5.70637 22.6298 5.13826 23.1979 5.13826 23.8923C5.13826 24.5866 5.70637 25.1547 6.40073 25.1547ZM61.5329 23.4504L52.4936 15.9639C52.2663 15.7746 51.9886 15.6736 51.6856 15.6736H41.0556V11.1287C41.0556 10.4343 40.4875 9.86621 39.7931 9.86621H7.63795C6.94359 9.86621 6.37548 10.4343 6.37548 11.1287V20.37C6.37548 21.0643 6.94359 21.6325 7.63795 21.6325C8.33231 21.6325 8.90043 21.0643 8.90043 20.37V12.3912H38.5433V42.3244H28.191C27.4966 42.3244 26.9285 42.8925 26.9285 43.5868C26.9285 44.2812 27.4966 44.8493 28.191 44.8493H43.6058C44.3001 44.8493 44.8682 44.2812 44.8682 43.5868C44.8682 42.8925 44.3001 42.3244 43.6058 42.3244H41.0682V18.1985H51.2437L59.475 25.0159L59.3867 42.2991H58.0737C57.3793 42.2991 56.8112 42.8672 56.8112 43.5616C56.8112 44.2559 57.3793 44.8241 58.0737 44.8241H60.6365C61.3309 44.8241 61.899 44.2686 61.899 43.5742L62 24.4351C61.9874 24.0564 61.8232 23.6903 61.5329 23.4504Z" fill="#CB0000"/>
</svg>
