<svg width="30" height="30" viewBox="0 0 30 30" fill="none" xmlns="http://www.w3.org/2000/svg">
<g clip-path="url(#clip0)">
<path d="M29.9995 7.65832C29.9995 7.01789 29.7465 6.43849 29.343 5.99673C29.3362 5.98796 29.3347 5.97762 29.3275 5.96879C29.3207 5.96105 29.3114 5.95791 29.3042 5.9507C28.8453 5.47061 28.1987 5.16699 27.4786 5.16699H2.52138C1.80129 5.16699 1.15464 5.47061 0.694742 5.9507C0.688027 5.95791 0.678174 5.96105 0.671459 5.96933C0.664204 5.97762 0.662684 5.98845 0.655969 5.99727C0.252986 6.43903 0 7.01789 0 7.65832V22.3417C0 22.9977 0.263329 23.591 0.684399 24.0364C0.692684 24.0457 0.695282 24.0571 0.704595 24.0659C0.707683 24.069 0.711311 24.0695 0.714448 24.0726C1.17331 24.5403 1.81217 24.8331 2.52143 24.8331H27.4786C28.1879 24.8331 28.8273 24.5398 29.2856 24.0722C29.2887 24.0695 29.2923 24.0686 29.2954 24.066C29.3042 24.0577 29.3068 24.0463 29.3151 24.0375C29.7367 23.5921 30 22.9982 30 22.3417V7.65832H29.9995ZM20.1804 14.224L28.8257 7.05563C28.9105 7.2398 28.9607 7.44308 28.9607 7.65827V22.3416C28.9607 22.5362 28.9204 22.7208 28.8505 22.891L20.1804 14.224ZM27.4786 6.19379C27.6964 6.19379 27.9018 6.24344 28.0885 6.32727L15 17.1789L1.91149 6.32727C2.09825 6.24349 2.30364 6.19379 2.52138 6.19379H27.4786ZM1.14949 22.8906C1.07964 22.7209 1.0393 22.5358 1.0393 22.3412V7.65832C1.0393 7.44313 1.08949 7.2398 1.17429 7.05568L9.81963 14.2241L1.14949 22.8906ZM2.52138 23.8057C2.28138 23.8057 2.05786 23.7436 1.85717 23.6433L10.6183 14.8857L14.6663 18.2421C14.7625 18.3223 14.8815 18.3626 15 18.3626C15.1185 18.3626 15.2374 18.3223 15.3336 18.2421L19.3816 14.8857L28.1428 23.6433C27.942 23.7437 27.7186 23.8057 27.4785 23.8057H2.52138Z" fill="#CB0000"/>
</g>
<defs>
<clipPath id="clip0">
<rect width="30" height="30" fill="white"/>
</clipPath>
</defs>
</svg>
