<svg width="51" height="51" viewBox="0 0 51 51" fill="none" xmlns="http://www.w3.org/2000/svg">
<path d="M19.6121 16.2868C19.8173 16.496 20.0976 16.6147 20.3911 16.6159C20.6817 16.6138 20.9606 16.4998 21.1697 16.2976L26.4465 11.0212C26.8738 10.594 26.8738 9.90147 26.4465 9.47423C26.0193 9.047 25.3268 9.047 24.8996 9.47423L20.4018 13.972L18.219 11.7668C17.7947 11.337 17.1022 11.3319 16.672 11.7561C16.2418 12.1799 16.2371 12.8728 16.6613 13.3026L19.6121 16.2868Z" fill="#CB0000"/>
<path d="M44.0889 15.1606V4.57445C44.0868 2.04918 42.0397 0.00257112 39.5144 0H10.9373C8.51277 0 6.52744 1.95276 6.52744 4.35504L6.36289 32.0108H1.96371C1.35864 32.0126 0.868413 32.5028 0.866699 33.1079V37.858C0.873556 40.9429 3.30283 43.4785 6.38475 43.6173V43.628H31.0456V43.6173C31.1553 43.628 31.265 43.628 31.3747 43.628C34.5599 43.6242 37.1409 41.0432 37.1447 37.858V16.2469H42.9919C43.2824 16.252 43.5631 16.1398 43.7696 15.9354C43.9762 15.7305 44.0915 15.4516 44.0889 15.1606ZM3.06072 37.8687V34.2156H25.6043V37.8687C25.6056 39.168 26.0465 40.4283 26.8551 41.4451H6.63714C4.6621 41.4447 3.06115 39.8438 3.06072 37.8687ZM34.9507 4.57445V37.8687C34.9507 39.8438 33.3498 41.4451 31.3747 41.4451C29.3997 41.4451 27.7983 39.8438 27.7983 37.8687V33.1186C27.7966 32.5135 27.3064 32.0233 26.7013 32.0216H8.56762L8.73218 4.36619C8.7446 3.15433 9.73662 2.18202 10.9485 2.19402H35.6312C35.1843 2.90751 34.9486 3.73283 34.9507 4.57445ZM41.8949 14.0636H37.1447V4.57445C37.1447 3.25975 38.2109 2.19402 39.5256 2.19402C40.8403 2.19402 41.906 3.25975 41.906 4.57445V14.0636H41.8949Z" fill="#CB0000"/>
<path d="M30.2559 23.158H12.7586C12.1527 23.158 11.6616 23.6491 11.6616 24.255C11.6616 24.8605 12.1527 25.352 12.7586 25.352H30.2667C30.8726 25.349 31.3611 24.8553 31.3581 24.2494C31.3551 23.6435 30.8614 23.155 30.2559 23.158Z" fill="#CB0000"/>
<path d="M23.3448 27.6445H12.7586C12.1527 27.6445 11.6616 28.1356 11.6616 28.7415C11.6616 29.3475 12.1527 29.8385 12.7586 29.8385H23.3448C23.9503 29.8385 24.4418 29.3475 24.4418 28.7415C24.4418 28.1356 23.9503 27.6445 23.3448 27.6445Z" fill="#CB0000"/>
<path d="M45.8442 19.7898C43.4826 19.7928 41.5688 21.7066 41.5658 24.0681V43.0794C41.5641 43.1201 41.568 43.1608 41.577 43.2003V43.2221C41.577 43.2551 41.5877 43.277 41.5877 43.31C41.5864 43.322 41.5903 43.334 41.5988 43.343C41.6048 43.3687 41.6121 43.3944 41.6207 43.4197C41.6207 43.4304 41.6318 43.4415 41.6318 43.4527C41.6425 43.4745 41.6537 43.5075 41.6648 43.5294C41.6648 43.5354 41.6695 43.5401 41.6755 43.5401L44.9117 50.3745C45.0938 50.7551 45.4773 50.9976 45.899 50.9997H45.9102C46.3352 50.9993 46.7209 50.7508 46.8975 50.3638L50.0239 43.5294V43.5182C50.0347 43.4964 50.0458 43.4634 50.0569 43.4415C50.0578 43.4334 50.0616 43.4257 50.0676 43.4197C50.0801 43.3918 50.0878 43.3622 50.0895 43.3318C50.0895 43.3207 50.0895 43.3207 50.1006 43.31C50.1096 43.2778 50.1135 43.2444 50.1118 43.211V43.1891C50.1118 43.1561 50.1225 43.1124 50.1225 43.0687V24.0681C50.1195 21.7066 48.2057 19.7928 45.8442 19.7898ZM43.7598 41.9824V27.4689H47.9285V41.9824H43.7598ZM45.8442 21.9838C46.9956 21.9834 47.9289 22.9171 47.9285 24.0681V25.2748H43.7598V24.0681C43.7594 22.9171 44.6927 21.9834 45.8442 21.9838ZM45.8883 47.3029L44.4073 44.1657H47.3251L45.8883 47.3029Z" fill="#CB0000"/>
</svg>
