<svg width="38" height="44" viewBox="0 0 38 44" fill="none" xmlns="http://www.w3.org/2000/svg">
<path d="M32.8489 3.12653H31.1009V0.998865C31.1009 0.447148 30.6537 0 30.102 0C29.5507 0 29.1031 0.447148 29.1031 0.998865V3.13628H8.93622V0.998865C8.93622 0.447148 8.48907 0 7.93735 0C7.38564 0 6.93849 0.447148 6.93849 0.998865V3.13628H5.24042C2.48261 3.13745 0.247264 5.3728 0.246094 8.1306V39.0057C0.247264 41.7635 2.48261 43.9988 5.24042 44H32.8391C35.5969 43.9988 37.8323 41.7635 37.8335 39.0057V8.12085C37.8335 5.36656 35.6036 3.13199 32.8489 3.12653ZM35.8455 38.9955C35.8408 40.6487 34.5021 41.9874 32.8489 41.9921H5.24042C3.58761 41.9874 2.24851 40.6487 2.24382 38.9955V8.12085C2.24851 6.46765 3.58761 5.12894 5.24042 5.12426H6.93849V6.6725C6.93849 7.22421 7.38564 7.67136 7.93735 7.67136C8.48907 7.67136 8.93622 7.22421 8.93622 6.6725V5.12426H29.1031V6.6725C29.1031 7.22421 29.5507 7.67136 30.102 7.67136C30.6537 7.67136 31.1009 7.22421 31.1009 6.6725V5.12426H32.8489C34.5021 5.12894 35.8408 6.46765 35.8455 8.12085V38.9955Z" fill="#CB0000"/>
<path d="M12.9517 21.176L9.26606 24.6919L7.56799 22.9939C7.17898 22.6049 6.54845 22.6049 6.15943 22.9939C5.77042 23.3829 5.77042 24.0134 6.15943 24.4024L8.54696 26.7896C8.73424 26.9784 8.9902 27.083 9.25592 27.0795C9.51383 27.0818 9.76198 26.9811 9.94537 26.7997L14.3302 22.6045C14.5897 22.359 14.6978 21.9934 14.6127 21.6466C14.5277 21.2997 14.2627 21.025 13.9194 20.9278C13.5756 20.8303 13.2061 20.9251 12.9517 21.176Z" fill="#CB0000"/>
<path d="M31.2309 22.9937H19.744C19.1923 22.9937 18.7451 23.4408 18.7451 23.9925C18.7451 24.5442 19.1923 24.9914 19.744 24.9914H31.2309C31.7826 24.9914 32.2298 24.5442 32.2298 23.9925C32.2298 23.4408 31.7826 22.9937 31.2309 22.9937Z" fill="#CB0000"/>
<path d="M12.9517 11.1872L9.26606 14.7032L7.56799 13.0051C7.17898 12.6161 6.54845 12.6161 6.15943 13.0051C5.77042 13.3941 5.77042 14.0246 6.15943 14.4137L8.54696 16.8008C8.73424 16.9896 8.9902 17.0942 9.25592 17.0907C9.51383 17.093 9.76198 16.9924 9.94537 16.8109L14.3302 12.6157C14.5897 12.3703 14.6978 12.0047 14.6127 11.6578C14.5277 11.3109 14.2627 11.0362 13.9194 10.9391C13.5756 10.8415 13.2061 10.9363 12.9517 11.1872Z" fill="#CB0000"/>
<path d="M31.2309 13.0051H19.744C19.1923 13.0051 18.7451 13.4523 18.7451 14.004C18.7451 14.5557 19.1923 15.0029 19.744 15.0029H31.2309C31.7826 15.0029 32.2298 14.5557 32.2298 14.004C32.2298 13.4523 31.7826 13.0051 31.2309 13.0051Z" fill="#CB0000"/>
<path d="M12.9517 31.1645L9.26606 34.6805L7.56799 32.9824C7.17898 32.5934 6.54845 32.5934 6.15943 32.9824C5.77042 33.3714 5.77042 34.0019 6.15943 34.3909L8.54696 36.7781C8.73424 36.9669 8.9902 37.0715 9.25592 37.068C9.51383 37.0703 9.76198 36.9697 9.94537 36.7882L14.3302 32.593C14.5897 32.3476 14.6978 31.982 14.6127 31.6351C14.5277 31.2882 14.2627 31.0135 13.9194 30.9164C13.5756 30.8188 13.2061 30.9136 12.9517 31.1645Z" fill="#CB0000"/>
<path d="M31.2309 32.9824H19.744C19.1923 32.9824 18.7451 33.4296 18.7451 33.9813C18.7451 34.533 19.1923 34.9802 19.744 34.9802H31.2309C31.7826 34.9802 32.2298 34.533 32.2298 33.9813C32.2298 33.4296 31.7826 32.9824 31.2309 32.9824Z" fill="#CB0000"/>
</svg>

