<svg width="28" height="28" viewBox="0 0 28 28" fill="none" xmlns="http://www.w3.org/2000/svg">
<g clip-path="url(#clip0)">
<path d="M28 18.5107V9.48283C28 9.28504 27.8699 9.11072 27.6803 9.05448L23.5034 7.81522C23.8267 7.02437 24.0282 6.23941 24.0282 5.51064C24.0282 2.4721 21.5562 0 18.5176 0C15.479 0 13.007 2.47204 13.007 5.51064C13.007 6.23941 13.2085 7.02437 13.5318 7.81522L9.48199 9.01677L0.573881 6.37357C0.438766 6.3336 0.29257 6.35957 0.179557 6.44387C0.0665447 6.52817 0 6.66096 0 6.80197V15.8411C0 15.8422 0 15.8433 0 15.8444V24.8723C0 25.0701 0.130051 25.2444 0.319736 25.3007L9.34819 27.9796C9.35081 27.9803 9.35492 27.9815 9.35492 27.9815C9.35635 27.9819 9.35784 27.9821 9.35927 27.9825C9.37589 27.9872 9.39293 27.9909 9.41032 27.9937C9.41497 27.9945 9.41962 27.9952 9.42432 27.9958C9.44303 27.9983 9.46197 27.9999 9.48128 27.9999C9.50201 27.9999 9.52101 27.9983 9.53978 27.9958C9.54443 27.9952 9.54901 27.9945 9.55366 27.9937C9.57106 27.9909 9.58815 27.9872 9.60483 27.9825C9.60626 27.9821 9.60775 27.9819 9.60918 27.9815L9.61329 27.9803C9.61592 27.9795 18.3366 25.3921 18.3366 25.3921C18.392 25.4167 18.4531 25.4306 18.5177 25.4306C18.5822 25.4306 18.6434 25.4167 18.6987 25.3921L27.4261 27.9815C27.4679 27.9939 27.5107 27.9999 27.5533 27.9999C27.6485 27.9999 27.7424 27.9695 27.8205 27.9112C27.9335 27.8268 28.0001 27.6941 28.0001 27.5531V18.5143C28 18.5131 28 18.5119 28 18.5107ZM27.1064 9.81632V17.9194L18.9644 15.5037V14.2328C19.547 13.6328 21.8352 11.1948 23.1272 8.63574L27.1064 9.81632ZM18.5176 0.893617C21.0634 0.893617 23.1346 2.96478 23.1346 5.51064C23.1346 6.23631 22.8918 7.04456 22.5143 7.86294C22.4956 7.89284 22.4802 7.92531 22.4688 7.96022C21.3921 10.2329 19.3096 12.5623 18.5175 13.4051C17.7258 12.5632 15.6452 10.237 14.5682 7.96511C14.5561 7.92686 14.5392 7.89141 14.5185 7.85906C14.1424 7.04218 13.9006 6.23542 13.9006 5.51058C13.9006 2.96478 15.9718 0.893617 18.5176 0.893617ZM18.0708 14.2328V15.5036L9.9288 17.9193V9.81632L13.908 8.63574C15.2001 11.1948 17.4881 13.6328 18.0708 14.2328ZM0.893617 16.4358L3.98065 17.3517C4.02306 17.3643 4.06584 17.3703 4.1079 17.3703C4.30062 17.3703 4.47845 17.2447 4.53606 17.0505C4.6063 16.8139 4.47142 16.5652 4.23479 16.495L0.893617 15.5037V7.40058L9.03518 9.81632V17.9194L5.94821 17.0034C5.7117 16.9331 5.46298 17.0681 5.3928 17.3047C5.32256 17.5413 5.45744 17.7899 5.69407 17.8601L9.03524 18.8515V26.9546L0.893617 24.5388V16.4358ZM18.9644 24.5388V21.3041C18.9644 21.0574 18.7644 20.8573 18.5176 20.8573C18.2708 20.8573 18.0708 21.0574 18.0708 21.3041V24.5388L9.9288 26.9545V18.8515L18.0708 16.4358V19.5169C18.0708 19.7637 18.2708 19.9637 18.5176 19.9637C18.7644 19.9637 18.9644 19.7637 18.9644 19.5169V16.4358L27.1064 18.8515V26.9546L18.9644 24.5388Z" fill="#CB0000"/>
<path d="M18.5178 8.63862C20.2424 8.63862 21.6455 7.23558 21.6455 5.51096C21.6455 3.7864 20.2424 2.3833 18.5178 2.3833C16.7932 2.3833 15.3901 3.78634 15.3901 5.51096C15.3901 7.23552 16.7932 8.63862 18.5178 8.63862ZM18.5178 3.27692C19.7497 3.27692 20.7518 4.27908 20.7518 5.51096C20.7518 6.74284 19.7497 7.745 18.5178 7.745C17.2859 7.745 16.2838 6.74284 16.2838 5.51096C16.2838 4.27908 17.2859 3.27692 18.5178 3.27692Z" fill="#CB0000"/>
</g>
<defs>
<clipPath id="clip0">
<rect width="28" height="28" fill="white"/>
</clipPath>
</defs>
</svg>
