<svg width="44" height="44" viewBox="0 0 44 44" fill="none" xmlns="http://www.w3.org/2000/svg">
<path d="M24.9819 27.7338L20.9668 31.7489L19.0178 29.7808C18.6395 29.3967 18.0209 29.3921 17.6372 29.7708C17.2532 30.1496 17.2486 30.7677 17.6273 31.1518L20.2714 33.8154C20.4546 34.0025 20.7048 34.108 20.9668 34.1092C21.2262 34.1073 21.4752 34.0055 21.6619 33.8253L26.3724 29.1148C26.5557 28.9319 26.659 28.6833 26.659 28.4243C26.659 28.1653 26.5557 27.9171 26.3724 27.7338C25.9876 27.3521 25.3667 27.3521 24.9819 27.7338Z" fill="#CB0000"/>
<path d="M43.9802 12.6726C43.9802 12.6431 43.9702 12.6236 43.9702 12.5942C43.9702 12.5842 43.9603 12.5747 43.9603 12.5647C43.9507 12.5353 43.9507 12.5157 43.9408 12.4863C43.9408 12.4767 43.9312 12.4668 43.9312 12.4568C43.9213 12.4373 43.9113 12.4079 43.9017 12.3884C43.9017 12.3788 43.9017 12.3788 43.8918 12.3689L38.5156 1.45969C38.3485 1.12535 38.008 0.913045 37.6343 0.911133H6.35545C5.9821 0.913045 5.64126 1.12535 5.47409 1.45969L0.0979292 12.3689C0.0979292 12.3788 0.0979292 12.3788 0.0879833 12.3884C0.0784199 12.4079 0.068474 12.4373 0.0589105 12.4568C0.0589105 12.4668 0.0489646 12.4767 0.0489646 12.4863C0.0367235 12.5108 0.0302204 12.5376 0.0294552 12.5647C0.0294552 12.5747 0.0195094 12.5842 0.0195094 12.5942C0.0114761 12.6194 0.00803325 12.6458 0.00994589 12.6726V12.7017C0.00994589 12.7411 0 12.7705 0 12.8095V42.0414C0.00153014 42.5816 0.439151 43.0192 0.979292 43.0207H43.0204C43.5605 43.0192 43.9981 42.5816 43.9997 42.0414V12.7996C44.0012 12.7636 43.9978 12.7273 43.9897 12.6921C43.989 12.6844 43.9855 12.6776 43.9802 12.6726ZM41.4436 11.8203H28.6933L27.0774 2.86972H37.0272L41.4436 11.8203ZM17.0986 13.7789H26.8915V18.9202L26.6563 18.6753C26.4726 18.4833 26.219 18.3739 25.9532 18.372C25.6877 18.3701 25.4325 18.476 25.2462 18.6658L23.9632 19.9779L22.7001 18.6753C22.5134 18.4875 22.2598 18.3816 21.9951 18.3816C21.73 18.3816 21.4763 18.4875 21.2897 18.6753L20.0265 19.9779L18.7435 18.6658C18.5568 18.4783 18.3032 18.3728 18.0385 18.372C17.7719 18.372 17.5167 18.4818 17.3335 18.6753L17.0986 18.9202V13.7789ZM25.0894 2.86972L26.7052 11.8203H17.2945L18.9003 2.86972H25.0894ZM6.96292 2.86972H16.9123L15.2965 11.8203H2.54616L6.96292 2.86972ZM1.95858 41.0621V13.7789H15.14V21.3783C15.1404 21.78 15.3852 22.1407 15.7582 22.2895C16.1312 22.4383 16.5573 22.345 16.8339 22.0539L18.058 20.7613L19.3311 22.0638C19.5155 22.2494 19.7653 22.3546 20.0265 22.3576C20.2886 22.3584 20.5399 22.2524 20.722 22.0638L21.9851 20.7613L23.2482 22.0638C23.4326 22.2494 23.6824 22.3546 23.9437 22.3576C24.2057 22.3584 24.4571 22.2524 24.6391 22.0638L25.9122 20.7613L27.1363 22.0539C27.3234 22.2482 27.5816 22.3576 27.8509 22.3576C27.9752 22.3588 28.0984 22.3354 28.2136 22.2892C28.5862 22.1407 28.8306 21.7796 28.8302 21.3783V13.7789H42.0216V41.0621H1.95858Z" fill="#CB0000"/>
</svg>
