<svg width="24" height="24" viewBox="0 0 24 24" fill="none" xmlns="http://www.w3.org/2000/svg">
<g clip-path="url(#clip0)">
<path d="M23.9845 19.753C23.9082 19.1763 23.5753 18.679 23.0712 18.3888L17.1503 14.9798C16.4251 14.5623 15.5052 14.6838 14.9133 15.2757L13.747 16.4419C13.4367 16.7523 12.9457 16.7798 12.6052 16.5057C11.6858 15.7659 10.7806 14.9518 9.91466 14.0858C9.04876 13.2199 8.23459 12.3147 7.49475 11.3953C7.2207 11.0547 7.24812 10.5638 7.55856 10.2534L8.72474 9.08717C9.31659 8.49537 9.4383 7.57551 9.02067 6.85018L5.61164 0.929297C5.32137 0.425151 4.82417 0.092268 4.24746 0.0159672C3.67069 -0.0604892 3.10398 0.13187 2.69262 0.543231L0.935363 2.30054C-0.291101 3.52705 -0.310798 5.77057 0.8799 8.61791C2.02483 11.3557 4.16146 14.3696 6.89611 17.1044C9.63087 19.8391 12.6448 21.9757 15.3826 23.1206C16.7842 23.7067 18.0393 23.9996 19.099 23.9995C20.1921 23.9995 21.0772 23.6878 21.7 23.0651L23.4572 21.3078C23.8686 20.8964 24.0608 20.3297 23.9845 19.753ZM16.7624 15.6536L22.6832 19.0626C22.9761 19.2312 23.1694 19.52 23.2137 19.855C23.2509 20.1361 23.1779 20.4129 23.0123 20.6359L15.1435 16.1451L15.4631 15.8255C15.8068 15.4818 16.3412 15.4111 16.7624 15.6536ZM4.14544 0.786803C4.48045 0.831122 4.76922 1.02447 4.93779 1.31728L8.34681 7.23817C8.5894 7.65943 8.5187 8.19374 8.17498 8.53741L7.88144 8.83095L3.3659 0.988181C3.55048 0.851493 3.77125 0.777265 4.0014 0.777265C4.04914 0.777265 4.09729 0.780427 4.14544 0.786803ZM21.1501 22.5153C20.1757 23.4897 18.1829 23.4488 15.6826 22.4032C13.0359 21.2964 10.1108 19.2193 7.44598 16.5545C4.78115 13.8897 2.70402 10.9646 1.59724 8.31794C0.551578 5.81758 0.510784 3.82474 1.48518 2.8503L2.7897 1.54572L7.31204 9.40035L7.00875 9.70364C6.41706 10.2954 6.36553 11.2321 6.88896 11.8828C7.64621 12.8239 8.47925 13.7501 9.3648 14.6356C10.2504 15.5212 11.1766 16.3543 12.1177 17.1115C12.7682 17.6349 13.705 17.5835 14.2968 16.9917L14.5735 16.715L22.4533 21.2121L21.1501 22.5153Z" fill="#CB0000"/>
</g>
<defs>
<clipPath id="clip0">
<rect width="24" height="24" fill="white"/>
</clipPath>
</defs>
</svg>
