<svg width="60" height="60" viewBox="0 0 60 60" fill="none" xmlns="http://www.w3.org/2000/svg">
<g clip-path="url(#clip0)">
<path d="M58.8765 8.1663C58.8284 8.16602 58.7803 8.16871 58.7325 8.17451V8.16319L34.6735 11.0829L10.6145 8.16319C9.99405 8.08822 9.4302 8.53042 9.35523 9.15085C9.34943 9.19866 9.34674 9.24675 9.34702 9.29485V25.8057C5.87821 29.6173 5.72417 35.3945 8.98489 39.3856L0.39562 47.9522C-0.0791094 48.3588 -0.134419 49.0731 0.272128 49.5479C0.678676 50.0226 1.39303 50.0779 1.86776 49.6714C1.91204 49.6335 1.95335 49.5922 1.99126 49.5479L9.33571 42.2034V47.7825C9.3316 48.3581 9.76008 48.8451 10.3316 48.9141L34.5603 51.8451H34.8319L59.0041 48.9141C59.5756 48.8451 60.0041 48.3581 60 47.7825V9.30617C60.0044 8.68121 59.5015 8.17083 58.8765 8.1663ZM11.1998 27.1101C11.2233 27.0863 11.2469 27.0626 11.2708 27.0391C14.4458 23.8678 19.5905 23.8709 22.7617 27.0459C25.9329 30.2209 25.9299 35.3655 22.7549 38.5367C19.5826 41.7053 14.443 41.7053 11.2707 38.5367C8.09584 35.401 8.06401 30.2851 11.1998 27.1101ZM33.5417 49.446L11.6102 46.7866V41.6376C16.5039 44.6325 22.899 43.0933 25.894 38.1996C28.8889 33.3059 27.3497 26.9108 22.456 23.9159C19.1276 21.8789 14.9385 21.8789 11.6102 23.9159V10.5623L33.5417 13.2217V49.446ZM57.7365 46.7866L35.805 49.446V13.233L57.7365 10.5736V46.7866Z" fill="#CB0000"/>
<path d="M30.1697 19.2309L14.3265 17.3071C13.7015 17.2321 13.134 17.678 13.059 18.3029C12.984 18.9279 13.4299 19.4954 14.0549 19.5704H14.0888L29.932 21.4942H30.0339C30.6588 21.5317 31.1959 21.0554 31.2334 20.4304C31.2709 19.8053 30.7946 19.2684 30.1697 19.2309Z" fill="#CB0000"/>
<path d="M55.8347 18.3029C55.7597 17.678 55.1922 17.2321 54.5672 17.3071L38.724 19.2309C38.0991 19.2684 37.6228 19.8055 37.6603 20.4304C37.6978 21.0554 38.2349 21.5317 38.8598 21.4942H38.9956L54.8388 19.5704C55.4638 19.4952 55.9097 18.9279 55.8347 18.3029Z" fill="#CB0000"/>
<path d="M55.8347 27.8314C55.7597 27.2064 55.1922 26.7605 54.5672 26.8355L38.724 28.7593C38.0991 28.7968 37.6228 29.3339 37.6603 29.9589C37.6978 30.5838 38.2349 31.0601 38.8598 31.0226H38.9956L54.8388 29.0988C55.4638 29.0238 55.9097 28.4563 55.8347 27.8314Z" fill="#CB0000"/>
<path d="M55.8347 37.3599C55.7597 36.735 55.1922 36.2891 54.5672 36.3641L38.724 38.2879C38.0991 38.3254 37.6228 38.8625 37.6603 39.4874C37.6978 40.1124 38.2349 40.5887 38.8598 40.5512H38.9956L54.8388 38.6274C55.4638 38.5524 55.9097 37.9849 55.8347 37.3599Z" fill="#CB0000"/>
</g>
<defs>
<clipPath id="clip0">
<rect width="60" height="60" fill="white"/>
</clipPath>
</defs>
</svg>
