<svg width="41" height="47" viewBox="0 0 41 47" fill="none" xmlns="http://www.w3.org/2000/svg">
<path d="M31.0386 27.0129L27.0493 26.431L25.272 22.8227C25.0931 22.4599 24.724 22.2305 24.3198 22.2305C23.9151 22.2305 23.546 22.4599 23.3675 22.8227L21.5898 26.431L17.6009 27.0129C17.2009 27.0691 16.8681 27.3485 16.7437 27.7325C16.6189 28.1165 16.7214 28.538 17.0083 28.822L19.8969 31.6367L19.2195 35.6045C19.1525 36.0012 19.3154 36.4017 19.6402 36.6394C19.9651 36.877 20.3962 36.9105 20.7537 36.7262L24.3198 34.8531L27.8854 36.7262C28.2462 36.9076 28.6773 36.875 29.0067 36.6415C29.3341 36.4046 29.4982 36.0025 29.43 35.6045L28.753 31.6367L31.6416 28.822C31.9309 28.538 32.0334 28.114 31.9049 27.7292C31.7768 27.3444 31.4403 27.0662 31.0386 27.0129ZM26.8592 30.4938C26.6087 30.7385 26.4942 31.0903 26.5521 31.4358L26.965 33.8375L24.817 32.7055C24.6632 32.6257 24.4925 32.586 24.3198 32.5889C24.1474 32.591 23.9775 32.6307 23.8221 32.7055L21.6638 33.8375L22.0763 31.4358C22.1383 31.0903 22.023 30.7369 21.7696 30.4938L20.0238 28.7906L22.4363 28.4413C22.7818 28.3938 23.0807 28.1747 23.2299 27.8594L24.309 25.6692L25.3882 27.8594C25.5428 28.1706 25.8383 28.3876 26.1817 28.4413L28.5943 28.7906L26.8592 30.4938Z" fill="#CB0000"/>
<path d="M39.5562 11.6072H33.0804V8.77144C33.0846 5.97497 31.7525 3.34423 29.4958 1.6918C27.2391 0.0397893 24.329 -0.435521 21.6639 0.412598C18.9989 -0.435521 16.0887 0.0397893 13.832 1.6918C11.5754 3.34423 10.2437 5.97497 10.2474 8.77144V11.6072H8.32134C8.30026 11.6072 8.27919 11.6179 8.25811 11.6179C8.24736 11.6179 8.22628 11.6283 8.21554 11.6283C8.19446 11.6283 8.18412 11.639 8.16263 11.639C8.14155 11.639 8.13122 11.6498 8.10973 11.6498C8.09402 11.6522 8.07914 11.6597 8.06757 11.6708C8.04649 11.6812 8.03574 11.6812 8.01467 11.6919C8.00392 11.7027 7.99359 11.7027 7.97251 11.713C7.9535 11.7213 7.93572 11.732 7.9196 11.7448C7.90886 11.7448 7.90886 11.7556 7.89811 11.7556L6.597 12.5384C5.58563 13.1521 4.31717 13.1521 3.3062 12.5384L2.01543 11.7556C1.68974 11.5555 1.28138 11.5473 0.94784 11.7337C0.613883 11.9205 0.407227 12.2726 0.407227 12.6549V41.7096C0.408053 44.6309 2.77592 46.9992 5.69763 47H35.3239C38.2452 46.9992 40.6131 44.6309 40.6143 41.7096V12.6653C40.6127 12.0817 40.1398 11.6088 39.5562 11.6072ZM30.9643 8.77144V11.6072H27.79V8.77144C27.7921 6.21593 26.6745 3.78771 24.7323 2.12702C28.2368 2.35186 30.9643 5.25993 30.9643 8.77144ZM17.6432 11.6072V8.77144C17.6453 6.11715 19.2196 3.71621 21.6532 2.65606C24.0888 3.71373 25.6644 6.11632 25.6635 8.77144V11.6072H17.6432ZM12.3528 8.77144C12.3565 5.26117 15.0819 2.35517 18.5847 2.12702C16.6467 3.79102 15.5299 6.21717 15.527 8.77144V11.6072H12.3528V8.77144ZM2.52339 41.7203V14.5277C4.04851 15.3212 5.86502 15.3212 7.39056 14.5277V41.7203C7.38932 42.8652 7.76048 43.9795 8.44864 44.8946H5.69763C3.94643 44.8892 2.52835 43.4711 2.52339 41.7203ZM38.4981 41.7203C38.4928 43.4711 37.0747 44.8892 35.3239 44.8946H12.681C10.9298 44.8892 9.51169 43.4711 9.50673 41.7203V13.7233H11.1253C11.1844 13.7362 11.2447 13.7436 11.3055 13.7444C11.3658 13.7428 11.4262 13.7357 11.4853 13.7233H15.5378V21.2568C15.5378 21.8412 16.0114 22.3149 16.5959 22.3149C17.1799 22.3149 17.654 21.8412 17.654 21.2568V13.7233H26.5629C26.622 13.7362 26.6824 13.7436 26.7427 13.7444C26.803 13.7428 26.8634 13.7357 26.9225 13.7233H30.975V21.2568C30.975 21.8412 31.4487 22.3149 32.0331 22.3149C32.6175 22.3149 33.0912 21.8412 33.0912 21.2568V13.7233H38.4981V41.7203Z" fill="#CB0000"/>
</svg>
