<svg width="44" height="50" viewBox="0 0 44 50" fill="none" xmlns="http://www.w3.org/2000/svg">
<path d="M43.9167 18.4942L43.2838 5.5702C43.1577 2.90081 41.0223 0.765459 38.3529 0.639349L25.4289 0.00636714C23.9654 -0.066217 22.5397 0.484449 21.5049 1.52171L1.67765 21.3489C-0.130055 23.1607 -0.35024 26.0186 1.15862 28.0863C-0.432556 30.1531 -0.246027 33.0788 1.59453 34.927L15.1519 48.4844C17.1851 50.505 20.4684 50.505 22.5016 48.4844L42.3288 28.6572C43.3661 27.6224 43.9167 26.1967 43.8442 24.7332L43.6365 20.4459C43.849 19.8182 43.9443 19.1564 43.9167 18.4942ZM3.15164 22.8128L22.9789 2.98556C23.5632 2.40286 24.3543 2.07441 25.1795 2.07197H25.3352L38.2592 2.70536C39.861 2.78078 41.1423 4.06216 41.2178 5.66387L41.8511 18.5879C41.8909 19.4666 41.5596 20.3218 40.9376 20.9442L21.1103 40.7715C20.5272 41.3562 19.7357 41.6851 18.9097 41.6851C18.0837 41.6851 17.2922 41.3562 16.7091 40.7715L3.15164 27.2246C1.93352 26.0061 1.93352 24.0309 3.15164 22.8128ZM40.8544 27.1934L21.0272 47.0206C20.4445 47.6053 19.6526 47.9342 18.8266 47.9342C18.001 47.9342 17.209 47.6053 16.6259 47.0206L3.07906 33.4632C2.06085 32.445 1.87189 30.8619 2.62246 29.6328L15.2351 42.2454C17.2682 44.2664 20.5516 44.2664 22.5843 42.2454L41.6849 23.1343L41.768 24.837C41.8078 25.7157 41.4765 26.5709 40.8544 27.1934Z" fill="#CB0000"/>
<path d="M31.7506 16.5014C33.8158 16.5002 35.5923 15.04 35.9941 13.0145C36.3956 10.9891 35.3105 8.96158 33.4022 8.17248C31.4939 7.38338 29.2937 8.05204 28.1473 9.76933C27.001 11.487 27.2273 13.7752 28.6883 15.235C29.4993 16.0489 30.6018 16.505 31.7506 16.5014ZM30.1521 10.5844C30.5714 10.1594 31.1432 9.92017 31.7405 9.92017C32.3374 9.92017 32.9095 10.1594 33.3284 10.5844C33.9026 11.1505 34.1293 11.9809 33.9224 12.7599C33.7156 13.5392 33.107 14.1479 32.3276 14.3547C31.5487 14.5615 30.7182 14.3348 30.1521 13.761C29.2799 12.8815 29.2799 11.4635 30.1521 10.5844Z" fill="#CB0000"/>
<path d="M19.0341 23.2283C20.5398 23.2279 21.8353 22.1638 22.1285 20.6874C22.4221 19.2106 21.6314 17.7326 20.2405 17.1568C18.8492 16.581 17.2455 17.068 16.409 18.3197C15.5728 19.5715 15.7374 21.2401 16.8023 22.3042C17.3943 22.8966 18.1972 23.2287 19.0341 23.2283ZM18.2661 19.3043C18.4709 19.1027 18.7471 18.9908 19.0341 18.9929C19.3212 18.9929 19.5966 19.1044 19.8026 19.3043C20.2194 19.7272 20.2166 20.4076 19.7957 20.8269C19.3744 21.2458 18.6939 21.2458 18.273 20.8269C17.8521 20.4076 17.8489 19.7272 18.2661 19.3043Z" fill="#CB0000"/>
<path d="M16.7922 27.4842C15.5595 28.7169 15.5595 30.7152 16.7922 31.9479C18.0245 33.1806 20.0232 33.1806 21.2559 31.9479C22.4886 30.7152 22.4882 28.7169 21.2559 27.4842C20.6643 26.8909 19.8614 26.5576 19.0241 26.5576C18.1863 26.5576 17.3834 26.8909 16.7922 27.4842ZM19.7921 30.4841C19.3708 30.9054 18.6875 30.9054 18.2662 30.4841C17.8449 30.0627 17.8449 29.3795 18.2662 28.9582C18.471 28.7566 18.7471 28.6447 19.0342 28.6467C19.3213 28.6467 19.5966 28.7583 19.8026 28.9582C20.2199 29.3827 20.2154 30.0652 19.7921 30.4841Z" fill="#CB0000"/>
<path d="M12.4735 26.2074H12.5149L26.0098 25.6158C26.5828 25.5923 27.0285 25.1093 27.0058 24.536C26.9826 23.963 26.5001 23.5169 25.9271 23.5396L12.4322 24.1313C11.8588 24.1426 11.4034 24.6167 11.4148 25.19C11.4261 25.7634 11.9001 26.2188 12.4735 26.2074Z" fill="#CB0000"/>
</svg>
